<mxfile host="app.diagrams.net" modified="2022-08-03T03:24:27.336Z" agent="5.0 (Macintosh; Intel Mac OS X 11_1_0) AppleWebKit/537.36 (KHTML, like Gecko) Chrome/87.0.4280.88 Safari/537.36" etag="B8FBMSVaUSkJq6Gsx9xN" version="20.2.2" type="github">
  <diagram id="nY0bTE-3apDs5S13iyf6" name="第 1 页">
    <mxGraphModel dx="1298" dy="680" grid="1" gridSize="10" guides="1" tooltips="1" connect="1" arrows="1" fold="1" page="1" pageScale="1" pageWidth="827" pageHeight="1169" math="0" shadow="0">
      <root>
        <mxCell id="0" />
        <mxCell id="1" parent="0" />
        <mxCell id="kMQnhHURu-aHKJx5JaHV-3" style="edgeStyle=orthogonalEdgeStyle;rounded=0;orthogonalLoop=1;jettySize=auto;html=1;exitX=0.5;exitY=0;exitDx=0;exitDy=0;fillColor=#dae8fc;strokeColor=#6c8ebf;entryX=0.5;entryY=0;entryDx=0;entryDy=0;" edge="1" parent="1" source="kMQnhHURu-aHKJx5JaHV-1" target="kMQnhHURu-aHKJx5JaHV-2">
          <mxGeometry relative="1" as="geometry" />
        </mxCell>
        <mxCell id="kMQnhHURu-aHKJx5JaHV-1" value="" style="rounded=0;whiteSpace=wrap;html=1;" vertex="1" parent="1">
          <mxGeometry x="340" y="320" width="120" height="60" as="geometry" />
        </mxCell>
        <mxCell id="kMQnhHURu-aHKJx5JaHV-2" value="" style="whiteSpace=wrap;html=1;aspect=fixed;fillColor=#f8cecc;strokeColor=#b85450;rounded=0;" vertex="1" parent="1">
          <mxGeometry x="360" y="180" width="80" height="80" as="geometry" />
        </mxCell>
        <mxCell id="kMQnhHURu-aHKJx5JaHV-5" value="" style="shape=cube;whiteSpace=wrap;html=1;boundedLbl=1;backgroundOutline=1;darkOpacity=0.05;darkOpacity2=0.1;fontSize=16;size=90;" vertex="1" parent="1">
          <mxGeometry x="70" y="355" width="100" height="310" as="geometry" />
        </mxCell>
        <mxCell id="kMQnhHURu-aHKJx5JaHV-8" style="edgeStyle=orthogonalEdgeStyle;orthogonalLoop=1;jettySize=auto;html=1;exitX=0;exitY=0;exitDx=30;exitDy=40;exitPerimeter=0;fontSize=12;endArrow=open;startSize=14;endSize=14;" edge="1" parent="1" source="kMQnhHURu-aHKJx5JaHV-4">
          <mxGeometry relative="1" as="geometry">
            <mxPoint x="120" y="520" as="targetPoint" />
          </mxGeometry>
        </mxCell>
        <mxCell id="kMQnhHURu-aHKJx5JaHV-4" value="" style="shape=cube;whiteSpace=wrap;html=1;boundedLbl=1;backgroundOutline=1;darkOpacity=0.05;darkOpacity2=0.1;fontSize=16;" vertex="1" parent="1">
          <mxGeometry x="50" y="480" width="30" height="60" as="geometry" />
        </mxCell>
      </root>
    </mxGraphModel>
  </diagram>
</mxfile>
